
<svg width="580px" height="137px" viewBox="291 148 580 137" version="1.1" xmlns="http://www.w3.org/2000/svg" xmlns:xlink="http://www.w3.org/1999/xlink">
    <!-- Generator: Sketch 3.7.1 (28215) - http://www.bohemiancoding.com/sketch -->
    <desc>Created with Sketch.</desc>
    <defs></defs>
    <g id="Logo-Copy" stroke="none" stroke-width="1" fill="none" fill-rule="evenodd" transform="translate(291.000000, 148.000000)">
        <g id="Group">
            <path d="M12.197917,51.192626 L59.6797634,62.890191 C59.8687052,62.9236451 59.9687279,62.9348189 60.079872,62.9571127 C60.1687765,62.9571668 60.2576796,62.957221 60.3465841,62.9572751 C60.4354885,62.9573293 60.5243916,62.9573834 60.6132961,62.9574375 C60.7244131,62.9352791 60.8244223,62.9242271 60.9133268,62.9242813 C61.1022141,62.8688312 61.1244263,62.846619 61.1466389,62.8244064 C61.2577559,62.802248 61.3577516,62.7689702 61.446629,62.7245721 C61.5132938,62.7023866 61.5910637,62.6690954 61.6799411,62.6246973 C61.7688185,62.5802992 61.8465749,62.5247821 61.9132126,62.4581444 C61.9798774,62.4359589 62.0465277,62.3915479 62.1131654,62.3249102 C62.2020428,62.2805121 62.2797992,62.2249951 62.3464369,62.1583573 C62.4130746,62.0917196 62.4685917,62.0139632 62.5129898,61.9250858 C62.5796275,61.8584481 62.6240385,61.7917978 62.646224,61.725133 C62.7128617,61.6584953 62.7683788,61.5807389 62.8127768,61.4918616 C62.8571749,61.4029842 62.8904662,61.3252143 62.9126517,61.2585494 C62.9570498,61.1696721 62.9903275,61.0696764 63.012486,60.9585593 C63.0569243,60.936361 63.0680169,60.9030291 63.1123608,60.7252472 C63.1123067,60.6363428 63.1233587,60.5363335 63.1455171,60.4252165 C63.145463,60.3363121 63.1454088,60.2474089 63.1453547,60.1585045 C63.1453276,60.1140523 63.1452734,60.0251492 63.1451922,59.8917925 C63.1228984,59.7806484 63.1117246,59.6806256 63.1116705,59.5917211 C63.0782841,59.5139096 51.3807055,12.0098374 51.3807055,12.0098374 L87.9758658,48.6049977 C88.5318571,49.160989 89.1988064,49.4503302 89.9767339,49.4730301 C90.7546343,49.4512778 91.4101256,49.1738548 91.9432274,48.640753 C92.4985418,48.0854386 92.7759648,47.4299473 92.7755045,46.6742595 C92.7750172,45.8741194 92.4967821,45.1960639 91.9407908,44.6400727 L48.2067387,0.906020586 C47.2059545,-0.094763642 46.0834647,-0.239914799 44.8392355,0.47056276 C43.6172189,1.15882774 43.1733396,2.20316865 43.5075841,3.60361681 L56.5085581,56.3204785 L3.79169637,43.3195045 C2.39124821,42.98526 1.3469073,43.4291394 0.658642319,44.651156 C-0.05183524,45.8953851 0.0933159172,47.017875 1.09410015,48.0186592 L44.8281523,91.7527113 C45.3841435,92.3087025 46.0510928,92.5980438 46.8290203,92.6207436 C47.6069208,92.5989913 48.2735182,92.3104623 48.8288326,91.7551479 C49.3619344,91.222046 49.6393573,90.5665548 49.6611096,89.7886543 C49.6384097,89.0107269 49.3490685,88.3437775 48.7930773,87.7877863 L12.197917,51.192626 Z" id="M-Copy-6" fill="#4A4A4A"></path>
            <path d="M106.535018,69.0351969 L115.445521,77.9456998 C120.798377,83.2985562 123.467272,89.7903067 123.452285,97.4211462 C123.415327,105.073956 120.694485,111.602668 115.289677,117.007476 C109.884868,122.412284 103.356157,125.133126 95.7033469,125.170084 C88.0725074,125.185071 81.5698773,122.505297 76.1952613,117.130681 L67.1855737,108.384641 L106.535018,69.0351969 Z M102.628149,65.1086564 L104.595672,63.1411333 C105.144941,62.5918642 105.813139,62.3153331 106.600285,62.3115317 C107.365672,62.2859708 108.02035,62.5451812 108.56434,63.0891706 L119.433195,73.9580259 C125.87403,80.3988612 129.072225,88.2108478 129.027876,97.39422 C128.983527,106.577592 125.709728,114.420834 119.206381,120.924181 C112.703035,127.427527 104.859793,130.701326 95.6764207,130.745675 C86.4930485,130.790024 78.6810619,127.591829 72.2402266,121.150994 L61.2395474,110.413963 C60.695558,109.869973 60.4253624,109.22628 60.4289525,108.482864 C60.4327539,107.695718 60.709285,107.027521 61.2585541,106.478251 L63.2787051,104.4581 L63.2688691,104.448264 L102.618313,65.0988204 L102.628149,65.1086564 Z" id="D-Copy-6" fill="#4A4A4A"></path>
            <path d="M95.4765433,53.2899998 C96.6004535,52.1660896 98.4220623,52.16548 99.5401287,53.2835464 L99.5401287,53.2835464 C100.660475,54.4038925 100.661837,56.2189703 99.5336753,57.3471319 L55.5286368,101.35217 C54.4047266,102.476081 52.5831178,102.47669 51.4650514,101.358624 L51.4650514,101.358624 C50.3447053,100.238278 50.3433432,98.4231999 51.4715048,97.2950384 L95.4765433,53.2899998 Z" id="Rectangle-30" fill="#7ED321"></path>
        </g>
        <path d="M158.385126,68.6111715 C159.140579,68.7528189 159.848816,68.8000347 160.36819,68.8000347 C167.68664,68.8000347 170.377941,63.9368068 170.377941,58.2236944 L170.377941,27.2501263 C170.377941,26.0225154 169.433624,25.0309835 168.158798,25.0309835 C166.931187,25.0309835 165.986871,26.0225154 165.986871,27.2501263 L165.986871,58.2236944 C165.986871,61.6232323 164.475965,64.7394755 160.36819,64.7394755 C160.179327,64.7394755 159.612737,64.7394755 158.951716,64.6450439 C157.818536,64.5033965 156.827005,65.1644177 156.638141,66.3448128 C156.496494,67.4307764 157.251947,68.4223083 158.385126,68.6111715 L158.385126,68.6111715 Z M176.988153,41.603731 C176.988153,50.810813 184.164956,58.2709102 193.419253,58.2709102 C202.720767,58.2709102 209.944785,50.810813 209.944785,41.603731 C209.944785,32.3494332 202.720767,24.8893361 193.419253,24.8893361 C184.164956,24.8893361 176.988153,32.3494332 176.988153,41.603731 L176.988153,41.603731 Z M181.379223,41.603731 C181.379223,34.7102235 186.620177,29.1387585 193.419253,29.1387585 C200.265545,29.1387585 205.506499,34.7102235 205.506499,41.603731 C205.506499,48.4972386 200.265545,54.0214877 193.419253,54.0214877 C186.620177,54.0214877 181.379223,48.4972386 181.379223,41.603731 L181.379223,41.603731 Z M219.057436,49.6304179 C218.774141,48.7333176 218.018688,48.0722963 217.074372,48.0722963 C215.941192,48.0722963 214.902445,48.7805334 214.902445,50.1025759 C214.902445,50.3858708 214.94966,50.7163814 215.044092,51.046892 C216.366135,55.2018829 220.190615,58.2709102 225.903727,58.2709102 C232.891666,58.2709102 236.857794,53.7381929 236.857794,48.4972386 C236.857794,44.0589529 233.647119,40.9427098 228.075654,39.5734514 L223.826232,38.5347037 C219.718457,37.5431718 219.199083,35.4184606 219.199083,34.0019864 C219.199083,31.0273907 222.126463,29.0915427 225.289922,29.0915427 C228.264517,29.0915427 230.578092,30.3191536 231.380761,33.3409652 C231.711271,34.5213603 232.608372,34.8518709 233.41104,34.8518709 C235.063593,34.8518709 235.582967,33.9075548 235.582967,32.8688071 C235.582967,32.4910807 235.535751,32.1133542 235.44132,31.7828436 C234.260925,27.5806369 230.530876,24.8893361 225.337138,24.8893361 C219.812888,24.8893361 214.808013,28.5721688 214.808013,34.0492022 C214.808013,36.8349347 215.846761,40.8482781 222.740268,42.5480471 L226.942475,43.5867948 C229.728207,44.2950319 232.51394,45.7115061 232.466724,48.9221808 C232.466724,51.5662659 230.200366,54.1631352 225.903727,54.1631352 C222.362542,54.1631352 219.718457,52.0384239 219.057436,49.6304179 L219.057436,49.6304179 Z M263.393076,55.8156883 C263.393076,57.0432993 264.337393,58.0348312 265.565003,58.0348312 C266.83983,58.0348312 267.784146,57.0432993 267.784146,55.8156883 L267.784146,27.2501263 C267.784146,26.0225154 266.83983,25.0309835 265.565003,25.0309835 C264.337393,25.0309835 263.393076,26.0225154 263.393076,27.2501263 L263.393076,39.6206672 L247.670213,39.6206672 L247.670213,27.2501263 C247.670213,26.0225154 246.725897,25.0309835 245.451071,25.0309835 C244.22346,25.0309835 243.279143,26.0225154 243.279143,27.2501263 L243.279143,55.8156883 C243.279143,57.0432993 244.22346,58.0348312 245.451071,58.0348312 C246.725897,58.0348312 247.670213,57.0432993 247.670213,55.8156883 L247.670213,43.6340106 L263.393076,43.6340106 L263.393076,55.8156883 Z M318.635568,33.3409652 L321.421301,56.0517674 C321.562948,57.2321625 322.412833,58.0348312 323.593228,58.0348312 C324.820839,58.0348312 325.717939,57.1377309 325.717939,56.0045516 L325.717939,55.7212567 L322.223969,27.1556947 C322.082322,26.0225154 321.232438,25.0309835 320.099258,25.0309835 L319.6271,25.0309835 C318.635568,25.0309835 317.8329,25.5031415 317.549605,26.1641628 L306.501106,49.1582598 L295.452608,26.1641628 C295.122097,25.5031415 294.366644,25.0309835 293.422328,25.0309835 L292.95017,25.0309835 C291.816991,25.0309835 290.967107,26.0225154 290.825459,27.1556947 L287.33149,55.7212567 L287.33149,56.0045516 C287.33149,57.1377309 288.22859,58.0348312 289.456201,58.0348312 C290.58938,58.0348312 291.48648,57.2321625 291.628128,56.0517674 L294.366644,33.3409652 L304.140316,53.2660349 C304.565258,54.1159194 305.22628,55.2018829 306.548322,55.2018829 C307.870365,55.2018829 308.531386,54.1159194 308.956328,53.2660349 L318.635568,33.3409652 Z M338.08848,45.5698586 L343.471082,30.3191536 L348.853683,45.5698586 L338.08848,45.5698586 Z M346.540109,27.1556947 C346.020735,25.8336522 345.076419,25.0309835 343.612729,25.0309835 L343.37665,25.0309835 C341.818529,25.0309835 340.921428,25.8336522 340.354839,27.1556947 L329.778498,55.0130196 C329.30634,56.1934148 329.825714,57.4210257 331.006109,57.8931838 C332.186504,58.318126 333.414115,57.7515363 333.839057,56.618357 L336.577574,49.5359863 L350.364589,49.5359863 L353.05589,56.618357 C353.480832,57.7515363 354.708443,58.318126 355.888838,57.8931838 C357.069234,57.4210257 357.588607,56.1934148 357.116449,55.0130196 L346.540109,27.1556947 Z M359.854966,41.5565152 C359.854966,50.810813 367.1262,58.2709102 376.333282,58.2709102 C380.582704,58.2709102 384.359969,56.7600044 387.145701,54.210351 C387.995586,53.4548981 388.137233,52.0856397 387.38178,51.1413236 C386.531896,50.1970075 385.162638,50.1497917 384.265537,50.9052446 C382.140826,52.7938768 379.449525,54.0214877 376.333282,54.0214877 C369.534206,54.0214877 364.246036,48.4972386 364.246036,41.603731 C364.246036,34.7102235 369.534206,29.1387585 376.333282,29.1387585 C379.449525,29.1387585 382.140826,30.3663694 384.265537,32.2550016 C385.162638,33.0104545 386.531896,32.9632387 387.38178,32.0189226 C388.137233,31.0746065 387.995586,29.7053482 387.145701,28.9498953 C384.359969,26.4002418 380.582704,24.8893361 376.333282,24.8893361 C367.1262,24.8893361 359.854966,32.3022174 359.854966,41.5565152 L359.854966,41.5565152 Z M398.052552,53.6909771 L398.052552,29.3748375 L406.268102,29.3748375 C413.019962,29.3748375 416.513932,34.7574393 416.513932,41.603731 C416.513932,48.4500228 413.019962,53.6909771 406.268102,53.6909771 L398.052552,53.6909771 Z M406.268102,57.7987521 C415.5224,57.7987521 420.905002,50.810813 420.905002,41.603731 C420.905002,32.3494332 415.5224,25.2670625 406.268102,25.2670625 L395.502899,25.2670625 C394.511367,25.2670625 393.661482,26.116947 393.661482,27.1556947 L393.661482,55.9101199 C393.661482,56.9488677 394.511367,57.7987521 395.502899,57.7987521 L406.268102,57.7987521 Z M425.673798,41.603731 C425.673798,50.810813 432.850601,58.2709102 442.104898,58.2709102 C451.406412,58.2709102 458.63043,50.810813 458.63043,41.603731 C458.63043,32.3494332 451.406412,24.8893361 442.104898,24.8893361 C432.850601,24.8893361 425.673798,32.3494332 425.673798,41.603731 L425.673798,41.603731 Z M430.064868,41.603731 C430.064868,34.7102235 435.305822,29.1387585 442.104898,29.1387585 C448.95119,29.1387585 454.192144,34.7102235 454.192144,41.603731 C454.192144,48.4972386 448.95119,54.0214877 442.104898,54.0214877 C435.305822,54.0214877 430.064868,48.4972386 430.064868,41.603731 L430.064868,41.603731 Z M483.796454,56.8072202 C484.315828,57.7043205 484.976849,58.0348312 485.921165,58.0348312 L486.534971,58.0348312 C487.66815,58.0348312 488.612466,57.0905151 488.612466,55.9573357 L488.612466,27.2501263 C488.612466,26.0225154 487.66815,25.0309835 486.393323,25.0309835 C485.165712,25.0309835 484.221396,26.0225154 484.221396,27.2501263 L484.221396,49.5832021 L470.198302,26.3058102 C469.678928,25.3614941 468.970691,25.0309835 467.979159,25.0309835 L467.365354,25.0309835 C466.184959,25.0309835 465.193427,26.0225154 465.193427,27.2029105 L465.193427,55.8156883 C465.193427,57.0432993 466.137743,58.0348312 467.41257,58.0348312 C468.640181,58.0348312 469.584497,57.0432993 469.584497,55.8156883 L469.584497,33.2937493 L483.796454,56.8072202 Z M502.210618,45.5698586 L507.59322,30.3191536 L512.975822,45.5698586 L502.210618,45.5698586 Z M510.662247,27.1556947 C510.142873,25.8336522 509.198557,25.0309835 507.734867,25.0309835 L507.498788,25.0309835 C505.940667,25.0309835 505.043566,25.8336522 504.476977,27.1556947 L493.900636,55.0130196 C493.428478,56.1934148 493.947852,57.4210257 495.128247,57.8931838 C496.308642,58.318126 497.536253,57.7515363 497.961196,56.618357 L500.699712,49.5359863 L514.486727,49.5359863 L517.178028,56.618357 C517.602971,57.7515363 518.830581,58.318126 520.010977,57.8931838 C521.191372,57.4210257 521.710746,56.1934148 521.238588,55.0130196 L510.662247,27.1556947 Z M542.296837,57.7987521 C543.430016,57.7987521 544.374332,56.9016518 544.374332,55.7212567 C544.374332,54.5880774 543.430016,53.6909771 542.296837,53.6909771 L530.870612,53.6909771 L530.870612,27.2501263 C530.870612,26.0225154 529.926296,25.0309835 528.651469,25.0309835 C527.423858,25.0309835 526.479542,26.0225154 526.479542,27.2501263 L526.479542,55.5323935 C526.479542,56.7600044 527.51829,57.7987521 528.698685,57.7987521 L542.296837,57.7987521 Z M553.817493,53.6909771 L553.817493,29.3748375 L562.033043,29.3748375 C568.784903,29.3748375 572.278873,34.7574393 572.278873,41.603731 C572.278873,48.4500228 568.784903,53.6909771 562.033043,53.6909771 L553.817493,53.6909771 Z M562.033043,57.7987521 C571.287341,57.7987521 576.669943,50.810813 576.669943,41.603731 C576.669943,32.3494332 571.287341,25.2670625 562.033043,25.2670625 L551.267839,25.2670625 C550.276308,25.2670625 549.426423,26.116947 549.426423,27.1556947 L549.426423,55.9101199 C549.426423,56.9488677 550.276308,57.7987521 551.267839,57.7987521 L562.033043,57.7987521 Z" id="JOSH-MACDONALD" fill="#4A4A4A"></path>
        <path d="M163.06783,86.1799683 C163.06783,85.4638619 162.516979,84.8854683 161.77333,84.8854683 C161.057223,84.8854683 160.506372,85.4638619 160.506372,86.1799683 L160.506372,102.843213 C160.506372,103.559319 161.057223,104.137713 161.77333,104.137713 C162.516979,104.137713 163.06783,103.559319 163.06783,102.843213 L163.06783,86.1799683 Z M181.579787,104 C182.240809,104 182.79166,103.476691 182.79166,102.788128 C182.79166,102.127106 182.240809,101.603798 181.579787,101.603798 L174.914489,101.603798 L174.914489,86.1799683 C174.914489,85.4638619 174.363638,84.8854683 173.619989,84.8854683 C172.903883,84.8854683 172.353032,85.4638619 172.353032,86.1799683 L172.353032,102.677957 C172.353032,103.394064 172.958968,104 173.647532,104 L181.579787,104 Z M199.237926,104 C199.898947,104 200.449798,103.476691 200.449798,102.788128 C200.449798,102.127106 199.898947,101.603798 199.237926,101.603798 L192.572628,101.603798 L192.572628,86.1799683 C192.572628,85.4638619 192.021777,84.8854683 191.278128,84.8854683 C190.562021,84.8854683 190.01117,85.4638619 190.01117,86.1799683 L190.01117,102.677957 C190.01117,103.394064 190.617107,104 191.30567,104 L199.237926,104 Z M218.521075,97.472415 C218.521075,100.088957 216.482926,101.796596 214.141809,101.796596 C211.800692,101.796596 209.762543,100.088957 209.762543,97.472415 L209.762543,86.1799683 C209.762543,85.4638619 209.211692,84.8854683 208.468043,84.8854683 C207.751936,84.8854683 207.201085,85.4638619 207.201085,86.1799683 L207.201085,97.472415 C207.201085,101.603798 210.396021,104.275426 214.141809,104.275426 C217.887596,104.275426 221.082532,101.603798 221.082532,97.472415 L221.082532,86.1799683 C221.082532,85.4638619 220.531681,84.8854683 219.788032,84.8854683 C219.071926,84.8854683 218.521075,85.4638619 218.521075,86.1799683 L218.521075,97.472415 Z M231.689777,99.2351383 C231.524521,98.7118298 231.083841,98.3262341 230.53299,98.3262341 C229.871968,98.3262341 229.266032,98.7393724 229.266032,99.5105639 C229.266032,99.6758192 229.293575,99.8686171 229.34866,100.061415 C230.119851,102.48516 232.350798,104.275426 235.683447,104.275426 C239.759745,104.275426 242.073319,101.63134 242.073319,98.5741171 C242.073319,95.9851171 240.200426,94.1673086 236.950404,93.3685746 L234.471575,92.7626384 C232.075373,92.1842448 231.772404,90.9448299 231.772404,90.1185533 C231.772404,88.3833725 233.480043,87.2541278 235.325394,87.2541278 C237.060575,87.2541278 238.41016,87.9702342 238.878383,89.7329576 C239.071181,90.4215214 239.594489,90.6143193 240.062713,90.6143193 C241.026702,90.6143193 241.32967,90.0634682 241.32967,89.4575321 C241.32967,89.2371916 241.302128,89.0168512 241.247043,88.8240533 C240.558479,86.3727661 238.382617,84.8028406 235.352936,84.8028406 C232.130458,84.8028406 229.210947,86.9511597 229.210947,90.1460959 C229.210947,91.7711065 229.816883,94.1122235 233.838096,95.1037554 L236.289383,95.7096916 C237.914394,96.1228299 239.539404,96.9491065 239.511862,98.8220001 C239.511862,100.364383 238.189819,101.879223 235.683447,101.879223 C233.617755,101.879223 232.075373,100.639809 231.689777,99.2351383 L231.689777,99.2351383 Z M254.030149,87.4193831 L254.030149,102.843213 C254.030149,103.559319 254.581,104.137713 255.297107,104.137713 C256.040756,104.137713 256.591607,103.559319 256.591607,102.843213 L256.591607,87.4193831 L261.328926,87.4193831 C261.989947,87.4193831 262.540798,86.8960746 262.540798,86.2075108 C262.540798,85.5464895 261.989947,85.023181 261.328926,85.023181 L249.265287,85.023181 C248.604266,85.023181 248.053415,85.5464895 248.053415,86.2075108 C248.053415,86.8960746 248.604266,87.4193831 249.265287,87.4193831 L254.030149,87.4193831 Z M277.004,87.4193831 C279.207404,87.4193831 280.061224,89.2371916 280.061224,90.9723725 C280.061224,92.7350959 279.207404,94.4978192 276.89383,94.4978192 L272.376851,94.4978192 L272.376851,87.4193831 L277.004,87.4193831 Z M279.37266,103.559319 C279.813341,104.165255 280.584532,104.330511 281.162926,103.88983 C281.768862,103.476691 281.879032,102.7055 281.465894,102.099564 L277.747649,96.8113937 C281.300638,96.5084256 282.705309,93.7817129 282.705309,90.9723725 C282.705309,87.9977768 281.080298,85.023181 277.086628,85.023181 L270.862011,85.023181 C270.283617,85.023181 269.787851,85.518947 269.787851,86.1248832 L269.787851,102.843213 C269.787851,103.559319 270.338702,104.137713 271.054809,104.137713 C271.798458,104.137713 272.349309,103.559319 272.349309,102.843213 L272.349309,96.8940213 L274.800596,96.8940213 L279.37266,103.559319 Z M293.532894,96.8664788 L296.672745,87.9702342 L299.812596,96.8664788 L293.532894,96.8664788 Z M298.463011,86.1248832 C298.160043,85.3536917 297.609192,84.8854683 296.755373,84.8854683 L296.61766,84.8854683 C295.708756,84.8854683 295.185447,85.3536917 294.854936,86.1248832 L288.685405,102.374989 C288.409979,103.063553 288.712947,103.77966 289.401511,104.055085 C290.090075,104.302968 290.806181,103.972457 291.054064,103.311436 L292.651532,99.1800532 L300.693958,99.1800532 L302.263883,103.311436 C302.511766,103.972457 303.227873,104.302968 303.916436,104.055085 C304.605,103.77966 304.907968,103.063553 304.632543,102.374989 L298.463011,86.1248832 Z M314.551224,87.4193831 L314.551224,102.843213 C314.551224,103.559319 315.102075,104.137713 315.818181,104.137713 C316.56183,104.137713 317.112681,103.559319 317.112681,102.843213 L317.112681,87.4193831 L321.85,87.4193831 C322.511021,87.4193831 323.061873,86.8960746 323.061873,86.2075108 C323.061873,85.5464895 322.511021,85.023181 321.85,85.023181 L309.786362,85.023181 C309.125341,85.023181 308.57449,85.5464895 308.57449,86.2075108 C308.57449,86.8960746 309.125341,87.4193831 309.786362,87.4193831 L314.551224,87.4193831 Z M328.463575,94.5529043 C328.463575,99.9237022 332.650043,104.275426 338.048383,104.275426 C343.474266,104.275426 347.688277,99.9237022 347.688277,94.5529043 C347.688277,89.154564 343.474266,84.8028406 338.048383,84.8028406 C332.650043,84.8028406 328.463575,89.154564 328.463575,94.5529043 L328.463575,94.5529043 Z M331.025032,94.5529043 C331.025032,90.5316916 334.082256,87.2816704 338.048383,87.2816704 C342.042053,87.2816704 345.099277,90.5316916 345.099277,94.5529043 C345.099277,98.5741171 342.042053,101.796596 338.048383,101.796596 C334.082256,101.796596 331.025032,98.5741171 331.025032,94.5529043 L331.025032,94.5529043 Z M363.060383,87.4193831 C365.263787,87.4193831 366.117607,89.2371916 366.117607,90.9723725 C366.117607,92.7350959 365.263787,94.4978192 362.950213,94.4978192 L358.433234,94.4978192 L358.433234,87.4193831 L363.060383,87.4193831 Z M365.429043,103.559319 C365.869724,104.165255 366.640915,104.330511 367.219309,103.88983 C367.825245,103.476691 367.935415,102.7055 367.522277,102.099564 L363.804032,96.8113937 C367.357022,96.5084256 368.761692,93.7817129 368.761692,90.9723725 C368.761692,87.9977768 367.136681,85.023181 363.143011,85.023181 L356.918394,85.023181 C356.34,85.023181 355.844234,85.518947 355.844234,86.1248832 L355.844234,102.843213 C355.844234,103.559319 356.395085,104.137713 357.111192,104.137713 C357.854841,104.137713 358.405692,103.559319 358.405692,102.843213 L358.405692,96.8940213 L360.856979,96.8940213 L365.429043,103.559319 Z M397.3025,94.4151916 L397.3025,98.3537767 C397.219873,100.33684 395.67749,101.851681 393.501628,101.851681 C391.215596,101.851681 389.700756,100.254213 389.700756,98.1885213 C389.700756,96.2330001 391.325766,94.4151916 393.529171,94.4151916 L397.3025,94.4151916 Z M397.495298,86.7032768 C396.503766,85.6015747 395.264351,85.023181 393.694426,85.023181 C390.912628,85.023181 388.764309,87.1439576 388.764309,89.7605001 C388.764309,91.0825427 389.232532,92.3495001 390.113894,93.1757767 C388.378713,94.2774788 387.304554,96.1228299 387.304554,98.1885213 C387.304554,101.576255 389.838469,104.247883 393.501628,104.247883 C395.402064,104.247883 397.219873,103.531777 398.183862,102.209734 C398.762256,103.173723 399.919043,103.972457 401.488968,104.165255 C402.122447,104.247883 402.755926,103.88983 402.866096,103.256351 C402.948724,102.567787 402.508043,101.989394 401.902107,101.879223 C400.001671,101.603798 399.67116,100.061415 399.67116,98.1885213 L399.67116,94.4151916 L401.186,94.4151916 C401.736851,94.4151916 402.205075,93.9745107 402.205075,93.4236597 C402.205075,92.8452661 401.736851,92.4045852 401.186,92.4045852 L399.67116,92.4045852 L399.67116,91.0274576 C399.67116,90.3939789 399.147851,89.8431278 398.48683,89.8431278 C397.825809,89.8431278 397.3025,90.3939789 397.3025,91.0274576 L397.3025,92.3770427 L393.584256,92.3770427 C392.152043,92.3770427 391.160511,91.0825427 391.160511,89.7605001 C391.160511,88.410915 392.234671,87.4193831 393.694426,87.4193831 C394.465617,87.4193831 394.988926,87.612181 395.539777,88.1354895 C396.008,88.6037129 396.696564,88.7965108 397.247415,88.3833725 C397.798266,87.9702342 397.880894,87.1439576 397.495298,86.7032768 L397.495298,86.7032768 Z M424.686522,101.603798 L424.686522,87.4193831 L429.478926,87.4193831 C433.417511,87.4193831 435.45566,90.5592342 435.45566,94.5529043 C435.45566,98.5465745 433.417511,101.603798 429.478926,101.603798 L424.686522,101.603798 Z M429.478926,104 C434.877266,104 438.017117,99.9237022 438.017117,94.5529043 C438.017117,89.154564 434.877266,85.023181 429.478926,85.023181 L423.199224,85.023181 C422.62083,85.023181 422.125064,85.518947 422.125064,86.1248832 L422.125064,102.898298 C422.125064,103.504234 422.62083,104 423.199224,104 L429.478926,104 Z M455.344745,95.8749469 C456.005766,95.8749469 456.556618,95.3516384 456.556618,94.6906171 C456.556618,94.0020533 456.005766,93.4787448 455.344745,93.4787448 L448.789618,93.4787448 L448.789618,87.4193831 L456.391362,87.4193831 C457.052383,87.4193831 457.603235,86.8960746 457.603235,86.2075108 C457.603235,85.5464895 457.052383,85.023181 456.391362,85.023181 L447.52266,85.023181 C446.834096,85.023181 446.22816,85.6291172 446.22816,86.3452236 L446.22816,102.677957 C446.22816,103.394064 446.834096,104 447.52266,104 L456.721873,104 C457.382894,104 457.933745,103.476691 457.933745,102.81567 C457.933745,102.127106 457.382894,101.603798 456.721873,101.603798 L448.789618,101.603798 L448.789618,95.8749469 L455.344745,95.8749469 Z M467.191405,99.2351383 C467.02615,98.7118298 466.585469,98.3262341 466.034618,98.3262341 C465.373596,98.3262341 464.76766,98.7393724 464.76766,99.5105639 C464.76766,99.6758192 464.795203,99.8686171 464.850288,100.061415 C465.621479,102.48516 467.852426,104.275426 471.185075,104.275426 C475.261373,104.275426 477.574947,101.63134 477.574947,98.5741171 C477.574947,95.9851171 475.702054,94.1673086 472.452033,93.3685746 L469.973203,92.7626384 C467.577001,92.1842448 467.274033,90.9448299 467.274033,90.1185533 C467.274033,88.3833725 468.981671,87.2541278 470.827022,87.2541278 C472.562203,87.2541278 473.911788,87.9702342 474.380011,89.7329576 C474.572809,90.4215214 475.096118,90.6143193 475.564341,90.6143193 C476.52833,90.6143193 476.831298,90.0634682 476.831298,89.4575321 C476.831298,89.2371916 476.803756,89.0168512 476.748671,88.8240533 C476.060107,86.3727661 473.884245,84.8028406 470.854564,84.8028406 C467.632086,84.8028406 464.712575,86.9511597 464.712575,90.1460959 C464.712575,91.7711065 465.318511,94.1122235 469.339724,95.1037554 L471.791011,95.7096916 C473.416022,96.1228299 475.041032,96.9491065 475.01349,98.8220001 C475.01349,100.364383 473.691447,101.879223 471.185075,101.879223 C469.119384,101.879223 467.577001,100.639809 467.191405,99.2351383 L467.191405,99.2351383 Z M488.182192,86.1799683 C488.182192,85.4638619 487.631341,84.8854683 486.887692,84.8854683 C486.171586,84.8854683 485.620735,85.4638619 485.620735,86.1799683 L485.620735,102.843213 C485.620735,103.559319 486.171586,104.137713 486.887692,104.137713 C487.631341,104.137713 488.182192,103.559319 488.182192,102.843213 L488.182192,86.1799683 Z M505.922958,104.275426 C510.935703,104.275426 514.653947,100.887692 514.653947,95.7372341 C514.653947,94.883415 514.433607,94.4702767 513.662416,94.4702767 L507.520426,94.4702767 C506.91449,94.4702767 506.391182,94.9660426 506.391182,95.5719788 C506.391182,96.2054575 506.91449,96.7012235 507.520426,96.7012235 L512.09249,96.7012235 C511.927235,99.8410745 509.338235,101.824138 505.922958,101.824138 C501.956831,101.824138 498.899607,98.5741171 498.899607,94.5529043 C498.899607,90.5316916 501.956831,87.2541278 505.922958,87.2541278 C507.355171,87.2541278 508.704756,87.7223512 509.806458,88.4660002 C510.054341,88.658798 510.384852,88.7689682 510.715362,88.7689682 C511.321299,88.7689682 511.87215,88.2732023 511.87215,87.5570959 C511.87215,85.8219151 508.043735,84.8028406 505.922958,84.8028406 C500.524618,84.8028406 496.33815,89.154564 496.33815,94.5529043 C496.33815,99.9237022 500.524618,104.275426 505.922958,104.275426 L505.922958,104.275426 Z M533.11082,103.421606 C533.413788,103.944915 533.799384,104.137713 534.350235,104.137713 L534.708288,104.137713 C535.369309,104.137713 535.92016,103.586862 535.92016,102.92584 L535.92016,86.1799683 C535.92016,85.4638619 535.369309,84.8854683 534.62566,84.8854683 C533.909554,84.8854683 533.358703,85.4638619 533.358703,86.1799683 L533.358703,99.2075958 L525.178565,85.6291172 C524.875597,85.0782661 524.462458,84.8854683 523.884065,84.8854683 L523.526011,84.8854683 C522.837448,84.8854683 522.259054,85.4638619 522.259054,86.1524257 L522.259054,102.843213 C522.259054,103.559319 522.809905,104.137713 523.553554,104.137713 C524.26966,104.137713 524.820511,103.559319 524.820511,102.843213 L524.820511,89.705415 L533.11082,103.421606 Z M554.321948,95.8749469 C554.982969,95.8749469 555.53382,95.3516384 555.53382,94.6906171 C555.53382,94.0020533 554.982969,93.4787448 554.321948,93.4787448 L547.76682,93.4787448 L547.76682,87.4193831 L555.368565,87.4193831 C556.029586,87.4193831 556.580437,86.8960746 556.580437,86.2075108 C556.580437,85.5464895 556.029586,85.023181 555.368565,85.023181 L546.499862,85.023181 C545.811299,85.023181 545.205362,85.6291172 545.205362,86.3452236 L545.205362,102.677957 C545.205362,103.394064 545.811299,104 546.499862,104 L555.699075,104 C556.360096,104 556.910947,103.476691 556.910947,102.81567 C556.910947,102.127106 556.360096,101.603798 555.699075,101.603798 L547.76682,101.603798 L547.76682,95.8749469 L554.321948,95.8749469 Z M572.062714,87.4193831 C574.266118,87.4193831 575.119937,89.2371916 575.119937,90.9723725 C575.119937,92.7350959 574.266118,94.4978192 571.952543,94.4978192 L567.435565,94.4978192 L567.435565,87.4193831 L572.062714,87.4193831 Z M574.431373,103.559319 C574.872054,104.165255 575.643245,104.330511 576.221639,103.88983 C576.827575,103.476691 576.937745,102.7055 576.524607,102.099564 L572.806362,96.8113937 C576.359352,96.5084256 577.764022,93.7817129 577.764022,90.9723725 C577.764022,87.9977768 576.139011,85.023181 572.145341,85.023181 L565.920724,85.023181 C565.342331,85.023181 564.846565,85.518947 564.846565,86.1248832 L564.846565,102.843213 C564.846565,103.559319 565.397416,104.137713 566.113522,104.137713 C566.857171,104.137713 567.408022,103.559319 567.408022,102.843213 L567.408022,96.8940213 L569.859309,96.8940213 L574.431373,103.559319 Z" id="ILLUSTRATOR-&amp;-DESIGN" fill="#7ED321"></path>
    </g>
</svg>
