
<svg width="130px" height="137px" viewBox="0 0 130 137" version="1.1" xmlns="http://www.w3.org/2000/svg" xmlns:xlink="http://www.w3.org/1999/xlink">
    <!-- Generator: Sketch 3.7.1 (28215) - http://www.bohemiancoding.com/sketch -->
    <desc>Created with Sketch.</desc>
    <defs></defs>
    <g id="Group" stroke="none" stroke-width="1" fill="none" fill-rule="evenodd">
        <path d="M12.197917,51.192626 L59.6797634,62.890191 C59.8687052,62.9236451 59.9687279,62.9348189 60.079872,62.9571127 C60.1687765,62.9571668 60.2576796,62.957221 60.3465841,62.9572751 C60.4354885,62.9573293 60.5243916,62.9573834 60.6132961,62.9574375 C60.7244131,62.9352791 60.8244223,62.9242271 60.9133268,62.9242813 C61.1022141,62.8688312 61.1244263,62.846619 61.1466389,62.8244064 C61.2577559,62.802248 61.3577516,62.7689702 61.446629,62.7245721 C61.5132938,62.7023866 61.5910637,62.6690954 61.6799411,62.6246973 C61.7688185,62.5802992 61.8465749,62.5247821 61.9132126,62.4581444 C61.9798774,62.4359589 62.0465277,62.3915479 62.1131654,62.3249102 C62.2020428,62.2805121 62.2797992,62.2249951 62.3464369,62.1583573 C62.4130746,62.0917196 62.4685917,62.0139632 62.5129898,61.9250858 C62.5796275,61.8584481 62.6240385,61.7917978 62.646224,61.725133 C62.7128617,61.6584953 62.7683788,61.5807389 62.8127768,61.4918616 C62.8571749,61.4029842 62.8904662,61.3252143 62.9126517,61.2585494 C62.9570498,61.1696721 62.9903275,61.0696764 63.012486,60.9585593 C63.0569243,60.936361 63.0680169,60.9030291 63.1123608,60.7252472 C63.1123067,60.6363428 63.1233587,60.5363335 63.1455171,60.4252165 C63.145463,60.3363121 63.1454088,60.2474089 63.1453547,60.1585045 C63.1453276,60.1140523 63.1452734,60.0251492 63.1451922,59.8917925 C63.1228984,59.7806484 63.1117246,59.6806256 63.1116705,59.5917211 C63.0782841,59.5139096 51.3807055,12.0098374 51.3807055,12.0098374 L87.9758658,48.6049977 C88.5318571,49.160989 89.1988064,49.4503302 89.9767339,49.4730301 C90.7546343,49.4512778 91.4101256,49.1738548 91.9432274,48.640753 C92.4985418,48.0854386 92.7759648,47.4299473 92.7755045,46.6742595 C92.7750172,45.8741194 92.4967821,45.1960639 91.9407908,44.6400727 L48.2067387,0.906020586 C47.2059545,-0.094763642 46.0834647,-0.239914799 44.8392355,0.47056276 C43.6172189,1.15882774 43.1733396,2.20316865 43.5075841,3.60361681 L56.5085581,56.3204785 L3.79169637,43.3195045 C2.39124821,42.98526 1.3469073,43.4291394 0.658642319,44.651156 C-0.05183524,45.8953851 0.0933159172,47.017875 1.09410015,48.0186592 L44.8281523,91.7527113 C45.3841435,92.3087025 46.0510928,92.5980438 46.8290203,92.6207436 C47.6069208,92.5989913 48.2735182,92.3104623 48.8288326,91.7551479 C49.3619344,91.222046 49.6393573,90.5665548 49.6611096,89.7886543 C49.6384097,89.0107269 49.3490685,88.3437775 48.7930773,87.7877863 L12.197917,51.192626 Z" id="M-Copy-6" fill="#fff"></path>
        <path d="M106.535018,69.0351969 L115.445521,77.9456998 C120.798377,83.2985562 123.467272,89.7903067 123.452285,97.4211462 C123.415327,105.073956 120.694485,111.602668 115.289677,117.007476 C109.884868,122.412284 103.356157,125.133126 95.7033469,125.170084 C88.0725074,125.185071 81.5698773,122.505297 76.1952613,117.130681 L67.1855737,108.384641 L106.535018,69.0351969 Z M102.628149,65.1086564 L104.595672,63.1411333 C105.144941,62.5918642 105.813139,62.3153331 106.600285,62.3115317 C107.365672,62.2859708 108.02035,62.5451812 108.56434,63.0891706 L119.433195,73.9580259 C125.87403,80.3988612 129.072225,88.2108478 129.027876,97.39422 C128.983527,106.577592 125.709728,114.420834 119.206381,120.924181 C112.703035,127.427527 104.859793,130.701326 95.6764207,130.745675 C86.4930485,130.790024 78.6810619,127.591829 72.2402266,121.150994 L61.2395474,110.413963 C60.695558,109.869973 60.4253624,109.22628 60.4289525,108.482864 C60.4327539,107.695718 60.709285,107.027521 61.2585541,106.478251 L63.2787051,104.4581 L63.2688691,104.448264 L102.618313,65.0988204 L102.628149,65.1086564 Z" id="D-Copy-6" fill="#fff"></path>
        <path d="M95.4765433,53.2899998 C96.6004535,52.1660896 98.4220623,52.16548 99.5401287,53.2835464 L99.5401287,53.2835464 C100.660475,54.4038925 100.661837,56.2189703 99.5336753,57.3471319 L55.5286368,101.35217 C54.4047266,102.476081 52.5831178,102.47669 51.4650514,101.358624 L51.4650514,101.358624 C50.3447053,100.238278 50.3433432,98.4231999 51.4715048,97.2950384 L95.4765433,53.2899998 Z" id="Rectangle-30" fill="#7ED321"></path>
    </g>
</svg>
