<?xml version="1.0" encoding="UTF-8" standalone="no"?>
<svg width="106px" height="67px" viewBox="0 0 106 67" version="1.1" xmlns="http://www.w3.org/2000/svg" xmlns:xlink="http://www.w3.org/1999/xlink">
    <!-- Generator: Sketch 3.7.2 (28276) - http://www.bohemiancoding.com/sketch -->
    <title>Page 1</title>
    <desc>Created with Sketch.</desc>
    <defs>
        <polygon id="path-1" points="53.0632281 48.2028522 53.0632281 0.0808466667 0.249267368 0.0808466667 0.249267368 48.2028522"></polygon>
        <polygon id="path-3" points="0.00014877193 0.302244444 0.00014877193 30.4510533 105.492836 30.4510533 105.492836 0.302244444"></polygon>
    </defs>
    <g id="Page-1" stroke="none" stroke-width="1" fill="none" fill-rule="evenodd">
        <g id="Preying-Owl" transform="translate(-667.000000, -117.000000)">
            <g id="Page-1" transform="translate(667.000000, 117.000000)">
                <path d="M46.5430007,25.4620472 C46.3016182,35.736125 37.9101375,43.9920139 27.5861095,43.9920139 C17.1099621,43.9920139 8.61768842,35.4930639 8.61768842,25.0086806 C8.61768842,20.8021972 9.98713404,16.9169417 12.3009095,13.7705472 C11.4372884,13.0651861 10.6279691,12.3479139 9.87406737,11.6224528 C3.98753404,16.6403806 0.249267368,24.1079028 0.249267368,32.453125 C0.249267368,47.5627417 12.4883621,59.8114583 27.5861095,59.8114583 C39.1873446,59.8114583 49.0940674,52.5754583 53.0633025,42.3698694 C51.8668042,39.2941972 51.2036533,35.9523861 51.2036533,32.453125 C51.2036533,30.114825 51.4982218,27.8450139 52.0497937,25.6783083 C50.1481165,25.6507639 48.3104112,25.5796694 46.5430007,25.4620472 Z" id="Fill-1" fill="#4A4A4A"></path>
                <g id="Group-5" transform="translate(52.814035, 11.608867)">
                    <mask id="mask-2" fill="white">
                        <use xlink:href="#path-1"></use>
                    </mask>
                    <g id="Clip-4"></g>
                    <path d="M43.5158639,0.0808466667 C42.7169586,0.910902222 41.8492463,1.73090778 40.9030568,2.53267444 C43.0557867,5.61169667 44.3229516,9.35662444 44.3229516,13.4000744 C44.3229516,23.8840856 35.830306,32.3834078 25.3545305,32.3834078 C15.0613726,32.3834078 6.68923228,24.1766522 6.39987088,13.94538 C4.74701474,14.02913 3.03874105,14.0771467 1.26575158,14.08273 C1.81509193,16.2457133 2.10891649,18.5106856 2.10891649,20.8445189 C2.10891649,24.3434078 1.44539368,27.6852189 0.249267368,30.7608911 C4.21850246,40.96648 14.1248533,48.2028522 25.7264604,48.2028522 C40.8242077,48.2028522 53.0633025,35.9541356 53.0633025,20.8445189 C53.0633025,12.5361467 49.3573937,5.09840222 43.5158639,0.0808466667" id="Fill-3" fill="#4A4A4A" mask="url(#mask-2)"></path>
                </g>
                <path d="M54.7203986,25.6916339 C54.5158372,25.6920061 54.3190863,25.6953561 54.1137811,25.6953561 C53.1988337,25.6953561 52.3058302,25.6864228 51.4098512,25.6782339 C50.510153,27.8449394 50.0296196,30.1147506 50.0296196,32.4534228 C50.0296196,35.9523117 51.1119354,39.2941228 53.0627074,42.369795 C55.0134793,39.2941228 56.0954232,35.9523117 56.0954232,32.4534228 C56.0954232,30.1195894 55.6163775,27.854245 54.7203986,25.6916339" id="Fill-6" fill="#516485"></path>
                <path d="M41.3474014,25.1949778 C41.3474014,32.9040722 35.1030716,39.1533111 27.400033,39.1533111 C19.6969944,39.1533111 13.4526646,32.9040722 13.4526646,25.1949778 C13.4526646,21.9916333 14.5334926,19.0421444 16.3466505,16.6867222 C14.87604,15.7509556 13.5307698,14.7742444 12.3011698,13.7703611 C9.98702246,16.9171278 8.61757684,20.8023833 8.61757684,25.0088667 C8.61757684,35.49325 17.1098505,43.9922 27.5859979,43.9922 C37.910026,43.9922 46.3018786,35.7363111 46.5428891,25.4618611 C44.7397733,25.3416333 43.0102996,25.1730167 41.3414505,24.9664333 C41.3429382,25.0427389 41.3474014,25.1183 41.3474014,25.1949778" id="Fill-8" fill="#262626"></path>
                <path d="M91.9298575,25.1949778 C91.9298575,32.9040722 85.6855277,39.1533111 77.9824891,39.1533111 C70.2794505,39.1533111 64.0351207,32.9040722 64.0351207,25.1949778 L64.0351207,25.1905111 C62.4867768,25.3479611 60.8804119,25.4704222 59.2137944,25.5545444 C59.5031558,35.7858167 67.8752961,43.9922 78.168454,43.9922 C88.6446014,43.9922 97.1368751,35.49325 97.1368751,25.0088667 C97.1368751,20.9657889 95.8697102,17.2204889 93.7169804,14.1414667 C92.4423768,15.2212833 91.0238365,16.2664833 89.4554084,17.2603167 C91.0141663,19.51375 91.9298575,22.2466056 91.9298575,25.1949778" id="Fill-10" fill="#262626"></path>
                <path d="M77.9824891,39.1533111 C85.6855277,39.1533111 91.9298575,32.9040722 91.9298575,25.1949778 C91.9298575,22.2466056 91.0141663,19.51375 89.4554084,17.2603167 C88.2559347,18.0203944 86.9642225,18.7480889 85.5772961,19.4370722 C86.8362786,21.0167833 87.5905523,23.0171056 87.5905523,25.1949778 C87.5905523,30.3000056 83.4554365,34.4383722 78.3544189,34.4383722 C73.2534014,34.4383722 69.1182856,30.3000056 69.1182856,25.1949778 C69.1182856,24.9664333 69.1294435,24.7404944 69.1454365,24.5160444 C67.5178716,24.7855333 65.8947698,25.0096111 64.0351207,25.1905111 L64.0351207,25.1949778 C64.0351207,32.9040722 70.2794505,39.1533111 77.9824891,39.1533111" id="Fill-12" fill="#A458D8"></path>
                <path d="M27.400033,39.1533111 C35.1030716,39.1533111 41.3474014,32.9040722 41.3474014,25.1949778 C41.3474014,25.1183 41.3429382,25.0427389 41.3414505,24.9664333 C39.696033,24.7624556 38.1075207,24.5227444 36.5874435,24.2420889 C36.6198014,24.5555 36.6361663,24.8733778 36.6361663,25.1949778 C36.6361663,30.3000056 32.5010505,34.4383722 27.400033,34.4383722 C22.2990154,34.4383722 18.1638996,30.3000056 18.1638996,25.1949778 C18.1638996,22.8313667 19.0513242,20.6758278 20.5096611,19.0417722 C19.0193382,18.2962111 17.6365032,17.5071 16.3466505,16.6867222 C14.5334926,19.0421444 13.4526646,21.9916333 13.4526646,25.1949778 C13.4526646,32.9040722 19.6969944,39.1533111 27.400033,39.1533111" id="Fill-14" fill="#A458D8"></path>
                <path d="M84.1193312,25.3810889 L78.168454,29.1033111 L72.2175768,25.3810889 L84.1193312,25.3810889 Z M69.1182856,25.1949778 C69.1182856,30.3000056 73.2534014,34.4383722 78.3544189,34.4383722 C83.4554365,34.4383722 87.5905523,30.3000056 87.5905523,25.1949778 C87.5905523,23.0171056 86.8362786,21.0167833 85.5772961,19.4370722 C81.1583979,21.6320667 75.7568611,23.4220833 69.1454365,24.5160444 C69.1294435,24.7404944 69.1182856,24.9664333 69.1182856,25.1949778 L69.1182856,25.1949778 Z" id="Fill-16" fill="#000000"></path>
                <path d="M33.5368751,25.3810889 L27.5859979,29.1033111 L21.6351207,25.3810889 L33.5368751,25.3810889 Z M18.1638996,25.1949778 C18.1638996,30.3000056 22.2990154,34.4383722 27.400033,34.4383722 C32.5010505,34.4383722 36.6361663,30.3000056 36.6361663,25.1949778 C36.6361663,24.8733778 36.6198014,24.5555 36.5874435,24.2420889 C30.2010365,23.0632611 24.9040119,21.2386278 20.5096611,19.0417722 C19.0513242,20.6758278 18.1638996,22.8313667 18.1638996,25.1949778 L18.1638996,25.1949778 Z" id="Fill-18" fill="#000000"></path>
                <polygon id="Fill-20" fill="#7ED321" points="33.5368751 25.3810889 21.6351207 25.3810889 27.5859979 29.1033111"></polygon>
                <polygon id="Fill-22" fill="#7ED321" points="84.1193312 25.3810889 72.2175768 25.3810889 78.168454 29.1033111"></polygon>
                <path d="M52.0497937,25.6783083 C52.599134,25.686125 53.1466147,25.6954306 53.7074849,25.6954306 C53.8335691,25.6954306 53.9544463,25.6920806 54.0797867,25.6917083 C53.8053025,24.6118917 53.4616393,23.5607361 53.0633025,22.5367528 C52.6664533,23.5566417 52.323534,24.6033306 52.0497937,25.6783083" id="Fill-24" fill="#FFFFFF"></path>
                <polygon id="Fill-26" fill="#262626" points="43.7649453 29.1033111 53.1784891 66.6977556 61.8965242 29.1033111"></polygon>
                <polygon id="Fill-28" fill="#5E5E5E" points="53.2026646 29.1033111 43.7649453 29.1033111 53.1784891 66.6977556"></polygon>
                <g id="Group-32" transform="translate(0.000000, 0.069978)">
                    <mask id="mask-4" fill="white">
                        <use xlink:href="#path-3"></use>
                    </mask>
                    <g id="Clip-31"></g>
                    <path d="M54.0315102,23.64497 C23.9252786,23.64497 7.01548912,10.0395033 0.00014877193,0.30217 C1.73780491,4.01843667 15.4545768,30.4510533 54.0315102,30.4510533 C91.5495593,30.4510533 103.539461,5.44702556 105.492836,0.655781111 C99.1625909,10.46272 83.7754821,23.64497 54.0315102,23.64497" id="Fill-30" fill="#333333" mask="url(#mask-4)"></path>
                </g>
                <path d="M100.391484,0.91254 C98.2722281,4.55361778 89.9075263,17.9230956 73.2644105,22.70094 C65.741014,24.8605733 59.1091333,24.5225956 54.7735474,23.8957733 C54.7735474,23.8957733 60.155,23.1721733 77.1127684,15.9365456 C94.0705368,8.70091778 100.391484,0.91254 100.391484,0.91254" id="Fill-33" fill="#4A4A4A"></path>
                <path d="M5.67892211,0.91254 C7.79817825,4.55361778 16.16288,17.9230956 32.8059958,22.70094 C40.3293923,24.8605733 46.961273,24.5225956 51.2968589,23.8957733 C51.2968589,23.8957733 45.9154063,23.1721733 28.9576379,15.9365456 C11.9998695,8.70091778 5.67892211,0.91254 5.67892211,0.91254" id="Fill-35" fill="#4A4A4A"></path>
            </g>
        </g>
    </g>
</svg>